<svg width="46" height="38" viewBox="0 0 46 38" fill="none" xmlns="http://www.w3.org/2000/svg">
<path d="M40.5242 37.7891C42.8464 35.0232 44.4847 31.7492 45.3063 28.2324C46.1279 24.7155 46.1098 21.0546 45.2534 17.5461C44.397 14.0375 42.7264 10.7799 40.3768 8.03714C38.0273 5.29432 35.0649 3.14335 31.7294 1.75839C28.394 0.373428 24.7793 -0.2066 21.178 0.0652729C17.5767 0.337145 14.09 1.45328 11.0003 3.32329C7.91054 5.19331 5.30462 7.76465 3.39349 10.8291C1.48237 13.8936 0.319759 17.365 -0.000199028 20.9624L9.85781 21.8392C10.0401 19.7898 10.7024 17.8121 11.7912 16.0663C12.88 14.3204 14.3646 12.8556 16.1248 11.7902C17.885 10.7249 19.8713 10.089 21.923 9.93412C23.9746 9.77923 26.0339 10.1097 27.9341 10.8987C29.8343 11.6877 31.522 12.9131 32.8606 14.4757C34.1991 16.0383 35.1508 17.8941 35.6387 19.8929C36.1266 21.8917 36.1369 23.9773 35.6689 25.9809C35.2008 27.9844 34.2675 29.8496 32.9445 31.4254L40.5242 37.7891Z" fill="#EBEBFF"/>
</svg>
